# xmcd
#
# Track frame offsets: 
#        150
#        41953
#        80292
#        130202
#        151351
#
# Disc length: 2412 seconds
#
# Revision: 0
# Processed by: cddbd v1.5.2PL0 Copyright (c) Steve Scherf et al.
# Submitted via: ExactAudioCopy v0.95b3
#
DISCID=39096a05
DTITLE=Jimi Hendrix  - Message from Nine To The Universe - Original LP
DTITLE=cuts  [flac]
DYEAR=1900
DGENRE=
TTITLE0=Nine To The Universe
TTITLE1=Jimi Jimmy Jam
TTITLE2=Young Hendrix
TTITLE3=Easy Blues
TTITLE4=Drone Blues
EXTD=
EXTT0=
EXTT1=
EXTT2=
EXTT3=
EXTT4=
PLAYORDER=
